<mxfile host="app.diagrams.net" modified="2021-10-16T07:34:18.146Z" agent="5.0 (Windows NT 10.0; Win64; x64) AppleWebKit/537.36 (KHTML, like Gecko) Chrome/94.0.4606.81 Safari/537.36" etag="W1tqZaesUpjCUX45DFEd" version="15.5.4" type="github">
  <diagram name="Page-1" id="c9db0220-8083-56f3-ca83-edcdcd058819">
    <mxGraphModel dx="1422" dy="737" grid="1" gridSize="10" guides="1" tooltips="1" connect="1" arrows="1" fold="1" page="1" pageScale="1.5" pageWidth="826" pageHeight="1169" background="none" math="0" shadow="0">
      <root>
        <mxCell id="0" style=";html=1;" />
        <mxCell id="1" style=";html=1;" parent="0" />
        <mxCell id="jxQdnzVdVOvPUvink5SK-2" value="" style="html=1;verticalLabelPosition=bottom;labelBackgroundColor=#ffffff;verticalAlign=top;shadow=0;dashed=0;strokeWidth=1;shape=mxgraph.ios7.misc.ipad7inch;strokeColor=#c0c0c0;" vertex="1" parent="1">
          <mxGeometry x="410" y="60" width="366" height="549" as="geometry" />
        </mxCell>
        <mxCell id="jxQdnzVdVOvPUvink5SK-5" value="Belépés" style="swimlane;fontStyle=0;childLayout=stackLayout;horizontal=1;startSize=26;horizontalStack=0;resizeParent=1;resizeParentMax=0;resizeLast=0;collapsible=1;marginBottom=0;align=center;fontSize=14;" vertex="1" parent="1">
          <mxGeometry x="460" y="268.5" width="270" height="132" as="geometry" />
        </mxCell>
        <mxCell id="jxQdnzVdVOvPUvink5SK-6" value="E-mail    " style="text;strokeColor=none;fillColor=none;spacingLeft=4;spacingRight=4;overflow=hidden;rotatable=0;points=[[0,0.5],[1,0.5]];portConstraint=eastwest;fontSize=12;" vertex="1" parent="jxQdnzVdVOvPUvink5SK-5">
          <mxGeometry y="26" width="270" height="30" as="geometry" />
        </mxCell>
        <mxCell id="jxQdnzVdVOvPUvink5SK-7" value="Jelszó " style="text;strokeColor=none;fillColor=none;spacingLeft=4;spacingRight=4;overflow=hidden;rotatable=0;points=[[0,0.5],[1,0.5]];portConstraint=eastwest;fontSize=12;" vertex="1" parent="jxQdnzVdVOvPUvink5SK-5">
          <mxGeometry y="56" width="270" height="36" as="geometry" />
        </mxCell>
        <mxCell id="jxQdnzVdVOvPUvink5SK-13" value="Belépés" style="whiteSpace=wrap;html=1;align=center;" vertex="1" parent="jxQdnzVdVOvPUvink5SK-5">
          <mxGeometry y="92" width="270" height="40" as="geometry" />
        </mxCell>
        <mxCell id="jxQdnzVdVOvPUvink5SK-11" value="Wedding Crew" style="whiteSpace=wrap;html=1;align=center;" vertex="1" parent="1">
          <mxGeometry x="458" y="150" width="270" height="40" as="geometry" />
        </mxCell>
        <mxCell id="jxQdnzVdVOvPUvink5SK-12" value="Regisztráció" style="whiteSpace=wrap;html=1;align=center;" vertex="1" parent="1">
          <mxGeometry x="460" y="460" width="270" height="40" as="geometry" />
        </mxCell>
        <mxCell id="jxQdnzVdVOvPUvink5SK-15" value="" style="whiteSpace=wrap;html=1;aspect=fixed;" vertex="1" parent="1">
          <mxGeometry x="460" y="410.5" width="10" height="10" as="geometry" />
        </mxCell>
        <mxCell id="jxQdnzVdVOvPUvink5SK-17" value="Jelszó megjelenítése" style="text;html=1;strokeColor=none;fillColor=none;align=center;verticalAlign=middle;whiteSpace=wrap;rounded=0;" vertex="1" parent="1">
          <mxGeometry x="470" y="400.5" width="140" height="30" as="geometry" />
        </mxCell>
        <mxCell id="jxQdnzVdVOvPUvink5SK-18" value="Elfelejtette a jelszavát?" style="text;html=1;strokeColor=none;fillColor=none;align=center;verticalAlign=middle;whiteSpace=wrap;rounded=0;" vertex="1" parent="1">
          <mxGeometry x="513" y="430.5" width="160" height="30" as="geometry" />
        </mxCell>
      </root>
    </mxGraphModel>
  </diagram>
</mxfile>
